<?xml version="1.0" encoding="UTF-8" standalone="no"?>
<!DOCTYPE svg PUBLIC "-//W3C//DTD SVG 1.1//EN"
 "http://www.w3.org/Graphics/SVG/1.1/DTD/svg11.dtd">
<!-- Generated by graphviz version 2.43.0 (0)
 -->
<!-- Title: snakemake_dag Pages: 1 -->
<svg width="633pt" height="391pt"
 viewBox="0.00 0.00 632.50 391.00" xmlns="http://www.w3.org/2000/svg" xmlns:xlink="http://www.w3.org/1999/xlink">
<g id="graph0" class="graph" transform="scale(1 1) rotate(0) translate(4 387)">
<title>snakemake_dag</title>
<polygon fill="white" stroke="transparent" points="-4,4 -4,-387 628.5,-387 628.5,4 -4,4"/>
<!-- 0 -->
<g id="node1" class="node">
<title>0</title>
<path fill="none" stroke="#56d8b9" stroke-width="2" d="M143,-36C143,-36 64,-36 64,-36 58,-36 52,-30 52,-24 52,-24 52,-12 52,-12 52,-6 58,0 64,0 64,0 143,0 143,0 149,0 155,-6 155,-12 155,-12 155,-24 155,-24 155,-30 149,-36 143,-36"/>
<text text-anchor="middle" x="103.5" y="-15.5" font-family="sans" font-size="10.00">runFeatureCounts</text>
</g>
<!-- 1 -->
<g id="node2" class="node">
<title>1</title>
<path fill="none" stroke="#56c1d8" stroke-width="2" d="M173.5,-108C173.5,-108 33.5,-108 33.5,-108 27.5,-108 21.5,-102 21.5,-96 21.5,-96 21.5,-84 21.5,-84 21.5,-78 27.5,-72 33.5,-72 33.5,-72 173.5,-72 173.5,-72 179.5,-72 185.5,-78 185.5,-84 185.5,-84 185.5,-96 185.5,-96 185.5,-102 179.5,-108 173.5,-108"/>
<text text-anchor="middle" x="103.5" y="-93" font-family="sans" font-size="10.00">feature_counts</text>
<text text-anchor="middle" x="103.5" y="-82" font-family="sans" font-size="10.00">featureCounts_VERSION: 2.0.6</text>
</g>
<!-- 1&#45;&gt;0 -->
<g id="edge1" class="edge">
<title>1&#45;&gt;0</title>
<path fill="none" stroke="grey" stroke-width="2" d="M103.5,-71.7C103.5,-63.98 103.5,-54.71 103.5,-46.11"/>
<polygon fill="grey" stroke="grey" stroke-width="2" points="107,-46.1 103.5,-36.1 100,-46.1 107,-46.1"/>
</g>
<!-- 2 -->
<g id="node3" class="node">
<title>2</title>
<path fill="none" stroke="#56d8d0" stroke-width="2" stroke-dasharray="5,2" d="M287.5,-196C287.5,-196 185.5,-196 185.5,-196 179.5,-196 173.5,-190 173.5,-184 173.5,-184 173.5,-167 173.5,-167 173.5,-161 179.5,-155 185.5,-155 185.5,-155 287.5,-155 287.5,-155 293.5,-155 299.5,-161 299.5,-167 299.5,-167 299.5,-184 299.5,-184 299.5,-190 293.5,-196 287.5,-196"/>
<text text-anchor="middle" x="236.5" y="-184" font-family="sans" font-size="10.00">star_align_paired</text>
<text text-anchor="middle" x="236.5" y="-173" font-family="sans" font-size="10.00">STAR_VERSION: 2.7.11</text>
<text text-anchor="middle" x="236.5" y="-162" font-family="sans" font-size="10.00">sample: 586988</text>
</g>
<!-- 2&#45;&gt;1 -->
<g id="edge2" class="edge">
<title>2&#45;&gt;1</title>
<path fill="none" stroke="grey" stroke-width="2" d="M205.32,-154.92C185.57,-142.52 159.96,-126.45 139.37,-113.52"/>
<polygon fill="grey" stroke="grey" stroke-width="2" points="141.21,-110.54 130.88,-108.19 137.49,-116.47 141.21,-110.54"/>
</g>
<!-- 8 -->
<g id="node9" class="node">
<title>8</title>
<path fill="none" stroke="#56d863" stroke-width="2" d="M360.5,-108C360.5,-108 240.5,-108 240.5,-108 234.5,-108 228.5,-102 228.5,-96 228.5,-96 228.5,-84 228.5,-84 228.5,-78 234.5,-72 240.5,-72 240.5,-72 360.5,-72 360.5,-72 366.5,-72 372.5,-78 372.5,-84 372.5,-84 372.5,-96 372.5,-96 372.5,-102 366.5,-108 360.5,-108"/>
<text text-anchor="middle" x="300.5" y="-87.5" font-family="sans" font-size="10.00">rsem_calculateExpression</text>
</g>
<!-- 2&#45;&gt;8 -->
<g id="edge8" class="edge">
<title>2&#45;&gt;8</title>
<path fill="none" stroke="grey" stroke-width="2" d="M251.67,-154.71C260.5,-143.19 271.72,-128.55 281.18,-116.21"/>
<polygon fill="grey" stroke="grey" stroke-width="2" points="284.09,-118.17 287.39,-108.1 278.53,-113.91 284.09,-118.17"/>
</g>
<!-- 3 -->
<g id="node4" class="node">
<title>3</title>
<path fill="none" stroke="#80d856" stroke-width="2" stroke-dasharray="5,2" d="M272,-284C272,-284 177,-284 177,-284 171,-284 165,-278 165,-272 165,-272 165,-255 165,-255 165,-249 171,-243 177,-243 177,-243 272,-243 272,-243 278,-243 284,-249 284,-255 284,-255 284,-272 284,-272 284,-278 278,-284 272,-284"/>
<text text-anchor="middle" x="224.5" y="-272" font-family="sans" font-size="10.00">star_index</text>
<text text-anchor="middle" x="224.5" y="-261" font-family="sans" font-size="10.00">STAR_version: 2.7.11</text>
<text text-anchor="middle" x="224.5" y="-250" font-family="sans" font-size="10.00">ref_version: 44</text>
</g>
<!-- 3&#45;&gt;2 -->
<g id="edge4" class="edge">
<title>3&#45;&gt;2</title>
<path fill="none" stroke="grey" stroke-width="2" d="M227.22,-242.99C228.73,-232.18 230.64,-218.51 232.33,-206.38"/>
<polygon fill="grey" stroke="grey" stroke-width="2" points="235.83,-206.62 233.75,-196.24 228.9,-205.66 235.83,-206.62"/>
</g>
<!-- 4 -->
<g id="node5" class="node">
<title>4</title>
<path fill="none" stroke="#97d856" stroke-width="2" stroke-dasharray="5,2" d="M272.5,-383C272.5,-383 144.5,-383 144.5,-383 138.5,-383 132.5,-377 132.5,-371 132.5,-371 132.5,-332 132.5,-332 132.5,-326 138.5,-320 144.5,-320 144.5,-320 272.5,-320 272.5,-320 278.5,-320 284.5,-326 284.5,-332 284.5,-332 284.5,-371 284.5,-371 284.5,-377 278.5,-383 272.5,-383"/>
<text text-anchor="middle" x="208.5" y="-371" font-family="sans" font-size="10.00">getGENCODEannotation</text>
<text text-anchor="middle" x="208.5" y="-360" font-family="sans" font-size="10.00">gencode_release: 44</text>
<text text-anchor="middle" x="208.5" y="-349" font-family="sans" font-size="10.00">refDir: metadata/references</text>
<text text-anchor="middle" x="208.5" y="-338" font-family="sans" font-size="10.00">ref_build: GRCh38</text>
<text text-anchor="middle" x="208.5" y="-327" font-family="sans" font-size="10.00">species: human</text>
</g>
<!-- 4&#45;&gt;3 -->
<g id="edge5" class="edge">
<title>4&#45;&gt;3</title>
<path fill="none" stroke="grey" stroke-width="2" d="M214.19,-319.94C215.74,-311.59 217.42,-302.55 218.97,-294.25"/>
<polygon fill="grey" stroke="grey" stroke-width="2" points="222.44,-294.7 220.83,-284.23 215.56,-293.42 222.44,-294.7"/>
</g>
<!-- 9 -->
<g id="node10" class="node">
<title>9</title>
<path fill="none" stroke="#d87556" stroke-width="2" d="M413,-284C413,-284 314,-284 314,-284 308,-284 302,-278 302,-272 302,-272 302,-255 302,-255 302,-249 308,-243 314,-243 314,-243 413,-243 413,-243 419,-243 425,-249 425,-255 425,-255 425,-272 425,-272 425,-278 419,-284 413,-284"/>
<text text-anchor="middle" x="363.5" y="-272" font-family="sans" font-size="10.00">rsem_index</text>
<text text-anchor="middle" x="363.5" y="-261" font-family="sans" font-size="10.00">RSEM_VERSION: 1.3.3</text>
<text text-anchor="middle" x="363.5" y="-250" font-family="sans" font-size="10.00">ref_version: 44</text>
</g>
<!-- 4&#45;&gt;9 -->
<g id="edge11" class="edge">
<title>4&#45;&gt;9</title>
<path fill="none" stroke="grey" stroke-width="2" d="M263.58,-319.94C281.81,-309.82 301.85,-298.71 319.17,-289.1"/>
<polygon fill="grey" stroke="grey" stroke-width="2" points="320.9,-292.14 327.95,-284.23 317.51,-286.02 320.9,-292.14"/>
</g>
<!-- 5 -->
<g id="node6" class="node">
<title>5</title>
<path fill="none" stroke="#568ad8" stroke-width="2" stroke-dasharray="5,2" d="M442.5,-383C442.5,-383 314.5,-383 314.5,-383 308.5,-383 302.5,-377 302.5,-371 302.5,-371 302.5,-332 302.5,-332 302.5,-326 308.5,-320 314.5,-320 314.5,-320 442.5,-320 442.5,-320 448.5,-320 454.5,-326 454.5,-332 454.5,-332 454.5,-371 454.5,-371 454.5,-377 448.5,-383 442.5,-383"/>
<text text-anchor="middle" x="378.5" y="-371" font-family="sans" font-size="10.00">getGENCODEgenome</text>
<text text-anchor="middle" x="378.5" y="-360" font-family="sans" font-size="10.00">gencode_release: 44</text>
<text text-anchor="middle" x="378.5" y="-349" font-family="sans" font-size="10.00">refDir: metadata/references</text>
<text text-anchor="middle" x="378.5" y="-338" font-family="sans" font-size="10.00">ref_build: GRCh38</text>
<text text-anchor="middle" x="378.5" y="-327" font-family="sans" font-size="10.00">species: human</text>
</g>
<!-- 5&#45;&gt;3 -->
<g id="edge6" class="edge">
<title>5&#45;&gt;3</title>
<path fill="none" stroke="grey" stroke-width="2" d="M323.77,-319.94C305.83,-309.92 286.12,-298.91 269.02,-289.36"/>
<polygon fill="grey" stroke="grey" stroke-width="2" points="270.26,-286.04 259.82,-284.23 266.85,-292.16 270.26,-286.04"/>
</g>
<!-- 5&#45;&gt;9 -->
<g id="edge10" class="edge">
<title>5&#45;&gt;9</title>
<path fill="none" stroke="grey" stroke-width="2" d="M373.17,-319.94C371.71,-311.59 370.14,-302.55 368.69,-294.25"/>
<polygon fill="grey" stroke="grey" stroke-width="2" points="372.11,-293.47 366.94,-284.23 365.21,-294.68 372.11,-293.47"/>
</g>
<!-- 6 -->
<g id="node7" class="node">
<title>6</title>
<path fill="none" stroke="#97d856" stroke-width="2" stroke-dasharray="5,2" d="M143,-207C143,-207 12,-207 12,-207 6,-207 0,-201 0,-195 0,-195 0,-156 0,-156 0,-150 6,-144 12,-144 12,-144 143,-144 143,-144 149,-144 155,-150 155,-156 155,-156 155,-195 155,-195 155,-201 149,-207 143,-207"/>
<text text-anchor="middle" x="77.5" y="-195" font-family="sans" font-size="10.00">getGENCODEannotation</text>
<text text-anchor="middle" x="77.5" y="-184" font-family="sans" font-size="10.00">gencode_release: 44</text>
<text text-anchor="middle" x="77.5" y="-173" font-family="sans" font-size="10.00">refDir: metadata/references/</text>
<text text-anchor="middle" x="77.5" y="-162" font-family="sans" font-size="10.00">ref_build: GRCh38</text>
<text text-anchor="middle" x="77.5" y="-151" font-family="sans" font-size="10.00">species: human</text>
</g>
<!-- 6&#45;&gt;1 -->
<g id="edge3" class="edge">
<title>6&#45;&gt;1</title>
<path fill="none" stroke="grey" stroke-width="2" d="M87.03,-143.88C89.71,-135.28 92.6,-125.99 95.2,-117.64"/>
<polygon fill="grey" stroke="grey" stroke-width="2" points="98.57,-118.61 98.2,-108.03 91.88,-116.53 98.57,-118.61"/>
</g>
<!-- 7 -->
<g id="node8" class="node">
<title>7</title>
<path fill="none" stroke="#56a9d8" stroke-width="2" d="M320.5,-36C320.5,-36 280.5,-36 280.5,-36 274.5,-36 268.5,-30 268.5,-24 268.5,-24 268.5,-12 268.5,-12 268.5,-6 274.5,0 280.5,0 280.5,0 320.5,0 320.5,0 326.5,0 332.5,-6 332.5,-12 332.5,-12 332.5,-24 332.5,-24 332.5,-30 326.5,-36 320.5,-36"/>
<text text-anchor="middle" x="300.5" y="-15.5" font-family="sans" font-size="10.00">calcRSEM</text>
</g>
<!-- 8&#45;&gt;7 -->
<g id="edge7" class="edge">
<title>8&#45;&gt;7</title>
<path fill="none" stroke="grey" stroke-width="2" d="M300.5,-71.7C300.5,-63.98 300.5,-54.71 300.5,-46.11"/>
<polygon fill="grey" stroke="grey" stroke-width="2" points="304,-46.1 300.5,-36.1 297,-46.1 304,-46.1"/>
</g>
<!-- 9&#45;&gt;8 -->
<g id="edge9" class="edge">
<title>9&#45;&gt;8</title>
<path fill="none" stroke="grey" stroke-width="2" d="M356.27,-242.83C344.98,-212.08 323.11,-152.56 310.37,-117.88"/>
<polygon fill="grey" stroke="grey" stroke-width="2" points="313.62,-116.57 306.89,-108.39 307.05,-118.98 313.62,-116.57"/>
</g>
<!-- 10 -->
<g id="node11" class="node">
<title>10</title>
<path fill="none" stroke="#61d856" stroke-width="2" d="M563.5,-108C563.5,-108 533.5,-108 533.5,-108 527.5,-108 521.5,-102 521.5,-96 521.5,-96 521.5,-84 521.5,-84 521.5,-78 527.5,-72 533.5,-72 533.5,-72 563.5,-72 563.5,-72 569.5,-72 575.5,-78 575.5,-84 575.5,-84 575.5,-96 575.5,-96 575.5,-102 569.5,-108 563.5,-108"/>
<text text-anchor="middle" x="548.5" y="-87.5" font-family="sans" font-size="10.00">kallisto</text>
</g>
<!-- 11 -->
<g id="node12" class="node">
<title>11</title>
<path fill="none" stroke="#d85656" stroke-width="2" d="M584,-193.5C584,-193.5 513,-193.5 513,-193.5 507,-193.5 501,-187.5 501,-181.5 501,-181.5 501,-169.5 501,-169.5 501,-163.5 507,-157.5 513,-157.5 513,-157.5 584,-157.5 584,-157.5 590,-157.5 596,-163.5 596,-169.5 596,-169.5 596,-181.5 596,-181.5 596,-187.5 590,-193.5 584,-193.5"/>
<text text-anchor="middle" x="548.5" y="-178.5" font-family="sans" font-size="10.00">kallisto_quant</text>
<text text-anchor="middle" x="548.5" y="-167.5" font-family="sans" font-size="10.00">sample: 586988</text>
</g>
<!-- 11&#45;&gt;10 -->
<g id="edge12" class="edge">
<title>11&#45;&gt;10</title>
<path fill="none" stroke="grey" stroke-width="2" d="M548.5,-157.2C548.5,-146 548.5,-131.19 548.5,-118.41"/>
<polygon fill="grey" stroke="grey" stroke-width="2" points="552,-118.28 548.5,-108.28 545,-118.28 552,-118.28"/>
</g>
<!-- 12 -->
<g id="node13" class="node">
<title>12</title>
<path fill="none" stroke="#d88d56" stroke-width="2" d="M601,-284C601,-284 496,-284 496,-284 490,-284 484,-278 484,-272 484,-272 484,-255 484,-255 484,-249 490,-243 496,-243 496,-243 601,-243 601,-243 607,-243 613,-249 613,-255 613,-255 613,-272 613,-272 613,-278 607,-284 601,-284"/>
<text text-anchor="middle" x="548.5" y="-272" font-family="sans" font-size="10.00">kallisto_index</text>
<text text-anchor="middle" x="548.5" y="-261" font-family="sans" font-size="10.00">kallisto_version: 0.46.1</text>
<text text-anchor="middle" x="548.5" y="-250" font-family="sans" font-size="10.00">ref_version: 44</text>
</g>
<!-- 12&#45;&gt;11 -->
<g id="edge13" class="edge">
<title>12&#45;&gt;11</title>
<path fill="none" stroke="grey" stroke-width="2" d="M548.5,-242.99C548.5,-231.37 548.5,-216.46 548.5,-203.7"/>
<polygon fill="grey" stroke="grey" stroke-width="2" points="552,-203.61 548.5,-193.61 545,-203.61 552,-203.61"/>
</g>
<!-- 13 -->
<g id="node14" class="node">
<title>13</title>
<path fill="none" stroke="#b6d856" stroke-width="2" stroke-dasharray="5,2" d="M612.5,-383C612.5,-383 484.5,-383 484.5,-383 478.5,-383 472.5,-377 472.5,-371 472.5,-371 472.5,-332 472.5,-332 472.5,-326 478.5,-320 484.5,-320 484.5,-320 612.5,-320 612.5,-320 618.5,-320 624.5,-326 624.5,-332 624.5,-332 624.5,-371 624.5,-371 624.5,-377 618.5,-383 612.5,-383"/>
<text text-anchor="middle" x="548.5" y="-371" font-family="sans" font-size="10.00">getGENCODEtranscriptome</text>
<text text-anchor="middle" x="548.5" y="-360" font-family="sans" font-size="10.00">gencode_release: 44</text>
<text text-anchor="middle" x="548.5" y="-349" font-family="sans" font-size="10.00">refDir: metadata/references</text>
<text text-anchor="middle" x="548.5" y="-338" font-family="sans" font-size="10.00">ref_build: GRCh38</text>
<text text-anchor="middle" x="548.5" y="-327" font-family="sans" font-size="10.00">species: human</text>
</g>
<!-- 13&#45;&gt;12 -->
<g id="edge14" class="edge">
<title>13&#45;&gt;12</title>
<path fill="none" stroke="grey" stroke-width="2" d="M548.5,-319.94C548.5,-311.59 548.5,-302.55 548.5,-294.25"/>
<polygon fill="grey" stroke="grey" stroke-width="2" points="552,-294.23 548.5,-284.23 545,-294.23 552,-294.23"/>
</g>
</g>
</svg>
